<?xml version="1.0" encoding="iso-8859-1"?>
<!-- Uploaded to: SVG Repo, www.svgrepo.com, Generator: SVG Repo Mixer Tools -->
<svg fill="#000000" height="800px" width="800px" version="1.1" id="Layer_1" xmlns="http://www.w3.org/2000/svg" xmlns:xlink="http://www.w3.org/1999/xlink" 
	 viewBox="0 0 512.061 512.061" xml:space="preserve">
<g transform="translate(0 -1)">
	<g>
		<g>
			<path d="M413.274,316.794H253.493c2.053-4.045,4.388-8.937,6.819-14.598c0.345-0.259,0.681-0.538,0.991-0.857
				c3.772-3.849,8.004-9.225,12.911-15.454c9.903-12.591,22.134-28.112,35.647-37.388c42.666-0.413,74.277-10.849,93.977-31.05
				c24.013-24.636,23.211-56.602,22.903-68.634l-0.051-2.688c0-4.71-3.814-8.533-8.533-8.533l-1.707-0.026
				c-49.331-1.084-76.493,15.155-90.675,29.022c-17.084,16.695-26.146,39.849-27,68.843c-8.746,6.263-16.684,14.308-23.826,22.532
				c10.075-42.535,12.179-99.22-18.912-156.914c-0.268-31.126-9.331-55.649-26.982-72.863
				c-13.312-12.979-38.502-28.075-82.56-27.145l-1.365,0.026c-4.719,0-8.533,3.823-8.533,8.533l-0.034,1.929
				c-0.247,11.324-1.007,45.756,24.303,71.305c18.085,18.243,45.376,27.686,81.126,28.142c49.741,94.574,3.377,186.18-7.838,205.819
				H98.778c-12.1,0-21.948,9.847-21.948,21.956v7.287c0,12.109,9.847,21.956,21.948,21.956h14.298l51.152,44.758
				c2.236,1.86,8.934,6.443,20.002,6.443c3.635,0,7.723-2.816,12.041-5.794c3.439-2.381,6.997-4.83,11.127-6.528
				c15.863-6.554,28.527-7.791,42.598,6.289l33.399,35.422c2.842,3.379,8.073,4.992,14.362,4.736
				c8.431-0.358,15.394-4.753,19.746-8.38l12.971-10.812c9.02-7.518,21.837-8.516,31.915-2.475l16.521,9.566l6.101,3.635
				l27.128-76.861h1.135c12.1,0,21.956-9.847,21.956-21.956v-7.287C435.231,326.641,425.375,316.794,413.274,316.794z
				 M337.706,178.79c11.255-11,32.777-23.817,72.064-24.209c0,12.664-1.775,34.15-18.15,50.953
				c-13.605,13.95-34.864,22.32-63.337,24.983c11.218-10.599,25.048-21.999,33.278-25.253c4.386-1.732,6.536-6.69,4.804-11.076
				c-1.732-4.386-6.724-6.502-11.068-4.796c-10.607,4.196-25.447,16.338-37.332,27.445
				C321.131,201.297,327.729,188.543,337.706,178.79z M153.578,18.073c33.997,0.58,53.248,12.271,63.556,22.323
				c9.446,9.215,15.848,21.295,19.172,36.057c-10.835-10.932-22.496-19.999-35.634-27.771c-4.045-2.389-9.284-1.041-11.682,3.004
				c-2.406,4.053-1.058,9.293,2.995,11.691c13.69,8.092,25.642,17.789,36.753,29.872c-24.435-2.212-43.147-9.719-55.747-22.432
				C156.104,53.777,153.766,30.754,153.578,18.073z M418.164,346.038c0,2.697-2.193,4.89-4.89,4.89H98.778
				c-2.688,0-4.881-2.193-4.881-4.89v-7.287c0-2.697,2.193-4.89,4.881-4.89h314.496c2.697,0,4.89,2.193,4.89,4.89V346.038z"/>
			<path d="M409.628,495.994h-42.67l12.195-34.551l-25.429-15.087c-3.977-2.381-8.875-1.997-12.314,0.879l-12.979,10.812
				c-9.148,7.629-19.507,11.887-29.961,12.322c-11.75,0.546-21.888-3.319-27.836-10.47l-32.879-34.85
				c-6.673-6.665-10.65-7.842-23.851-2.406c-2.449,1.007-5.111,2.85-7.945,4.804c-5.99,4.13-12.774,8.815-21.726,8.815
				c-16.648,0-27.273-7.347-31.061-10.513l-31.275-27.162l-1.707-1.502l34.91,98.909H93.895c-4.719,0-8.533,3.823-8.533,8.533
				s3.814,8.533,8.533,8.533h67.231l0,0.001h199.808l0-0.001h48.693c4.719,0,8.533-3.823,8.533-8.533
				S414.347,495.994,409.628,495.994z"/>
		</g>
	</g>
</g>
</svg>