<?xml version="1.0" encoding="iso-8859-1"?>
<!-- Uploaded to: SVG Repo, www.svgrepo.com, Generator: SVG Repo Mixer Tools -->
<!DOCTYPE svg PUBLIC "-//W3C//DTD SVG 1.1//EN" "http://www.w3.org/Graphics/SVG/1.1/DTD/svg11.dtd">
<svg fill="#000000" version="1.1" id="Layer_1" xmlns="http://www.w3.org/2000/svg" xmlns:xlink="http://www.w3.org/1999/xlink" 
	 width="800px" height="800px" viewBox="0 0 612.002 612.002"
	 xml:space="preserve">
<path d="M337.759,115.277c-1.001-9.915-2.186-19.441-3.519-28.314l17.766-2.671c1.376,9.161,2.597,18.978,3.627,29.181
	L337.759,115.277z M534.89,149.085c-4.782,14.349-14.037,29.456-26.385,43.242l11.512,11.512l-12.702,12.703l-11.505-11.505
	c-13.415,12.034-27.926,21.004-41.881,25.896c-1.973,18.117-5.691,35.698-11.01,52.265l17.93,10.915l-9.341,15.346l-14.843-9.036
	c-5.077,12.46-11.113,24.181-18.037,34.922h46.532v75.452h-19.977l-19.162,201.205H198.898l-19.163-201.205h-19.977v-75.452h46.532
	c-6.924-10.743-12.96-22.462-18.037-34.922l-14.844,9.036l-9.34-15.346L182,283.198c-7.386-23.007-11.689-47.972-12.507-73.606
	h-19.916v-17.965h19.907c0.322-10.325,1.194-20.512,2.601-30.491c-18.954-2.707-41.567-15.291-60.843-34.044l-11.603,11.603
	l-12.702-12.702l12.132-12.132c-10.137-12.345-17.766-25.509-21.959-38.089c-6.25-18.753-4.313-34.46,5.458-44.229
	c9.771-9.771,25.478-11.708,44.229-5.458c12.579,4.194,25.743,11.822,38.088,21.959l14.27-14.27l12.702,12.702l-13.743,13.743
	c7.021,7.209,13.188,14.852,18.313,22.665c4.162-8.047,8.773-15.712,13.822-22.924c7.528-10.755,15.773-20.161,24.586-28.144
	l-15.257-16.791l13.296-12.082l16.056,17.669C268.397,7.132,289.999,0,312.46,0s44.063,7.132,63.528,20.61l16.056-17.669
	l13.295,12.082l-15.257,16.791c8.813,7.982,17.058,17.389,24.587,28.144c7.156,10.225,13.434,21.358,18.793,33.204l18.046-10.985
	l9.341,15.346l-20.553,12.511c1.577,4.381,3.038,8.838,4.38,13.368c13.04-11.159,27.116-19.535,40.528-24.006
	c18.752-6.25,34.459-4.313,44.229,5.458C539.204,114.624,541.142,130.331,534.89,149.085z M225.63,200.605
	c0,51.181,10.457,99.893,28.794,134.735h21.627c-5.167-26.697-8.646-59.606-10.125-96.043l17.949-0.728
	c1.487,36.605,5.193,70.586,10.504,96.773h36.169c7.176-35.334,11.253-83.872,11.253-134.736c0-19.423-0.584-38.576-1.736-56.925
	l17.93-1.126c1.176,18.723,1.771,38.253,1.771,58.051c0,50.309-3.94,98.583-10.904,134.733h21.636
	c18.337-34.844,28.794-83.56,28.794-134.735c0-49.816-9.629-96.512-27.115-131.482c-9.9-19.8-21.5-34.253-33.949-42.652
	c3.026,7.729,5.799,17.192,8.355,28.485l-17.521,3.968c-7.605-33.589-15.139-39.912-16.601-40.848
	c-1.627,1.045-10.802,8.791-19.11,53.005c-6.599,35.121-10.234,81.121-10.234,129.525c0,3.185,0.016,6.351,0.047,9.496L265.2,210.28
	c-0.032-3.205-0.048-6.432-0.048-9.675c0-51.759,4.048-100.506,11.399-137.261c3.008-15.039,6.352-27.275,10.101-36.847
	c-12.434,8.403-24.019,22.848-33.908,42.625C235.259,104.094,225.63,150.788,225.63,200.605z M176.375,138.047L91.594,53.266
	c-0.431,4.637,0.412,10.372,2.562,16.822c4.687,14.058,14.707,29.241,28.218,42.751c16.999,16.998,37.283,28.663,52.816,30.591
	C175.568,141.628,175.961,139.832,176.375,138.047z M187.325,102.876c-5.485-10.779-13.521-21.6-23.456-31.534
	c-13.511-13.511-28.693-23.532-42.751-28.218c-6.451-2.15-12.185-2.992-16.822-2.562l77.574,77.574
	C183.532,112.948,185.347,107.854,187.325,102.876z M228.15,335.343h6.231c-17.076-36.547-26.716-84.668-26.716-134.736
	c0-52.552,10.302-102.1,29.011-139.516c2.35-4.699,4.806-9.139,7.353-13.329c-34.131,32.654-56.723,88.968-56.723,152.844
	C187.305,251.865,202.149,300.678,228.15,335.343z M427.139,410.795H197.783l17.452,183.24h194.451L427.139,410.795z
	 M177.724,353.308v39.522h0.302h268.868h0.302v-39.522H177.724z M437.614,200.606c0-63.876-22.593-120.19-56.724-152.844
	c2.548,4.189,5.003,8.629,7.353,13.329c18.708,37.416,29.011,86.964,29.011,139.516c0,50.064-9.64,98.188-26.716,134.736h6.23
	C422.771,300.679,437.614,251.865,437.614,200.606z M507.707,113.876c-4.638-0.43-10.372,0.412-16.822,2.563
	c-13.527,4.509-28.092,13.968-41.211,26.713c1.707,8.084,3.048,16.344,4.021,24.736L507.707,113.876z M520.411,126.58
	l-64.979,64.979c0.094,3.005,0.147,6.021,0.147,9.048c0,3.457-0.066,6.903-0.192,10.337c11.482-5.397,23.495-14.042,34.243-24.79
	c13.511-13.511,23.531-28.693,28.218-42.751C520,136.952,520.842,131.217,520.411,126.58z M403.807,440.994l-17.884-1.703
	l-2.738,28.751l17.884,1.703L403.807,440.994z M399.243,488.902l-17.884-1.703l-6.387,67.066l17.884,1.703L399.243,488.902z"/>
</svg>