<svg version="1" xmlns="http://www.w3.org/2000/svg" width="4666.667" height="4666.667" viewBox="0 0 3500.000000 3500.000000"><path d="M1695 101c-53.9 2.1-91 4.8-125 9.1-8.5 1-20.4 2.4-26.5 2.9-6 .5-21.8 2.8-35 5s-25.3 4-26.8 4c-1.6 0-13.3 2-26 4.5-12.8 2.5-25.9 5-29.2 5.6-3.3.6-12.4 2.6-20.1 4.5-7.8 1.9-15 3.4-16 3.4-2.4-.1-34.7 7.8-55.9 13.7-8.8 2.4-16.6 4.3-17.4 4.3-.8 0-7.7 2-15.3 4.5-7.7 2.5-14.6 4.5-15.4 4.5-1.5 0-19.1 5.5-37.4 11.6-5.8 2-13.4 4.4-17 5.4-3.6 1-10.7 3.4-15.8 5.4-5.2 2-10 3.6-10.7 3.6-.7 0-6.3 2-12.5 4.5s-11.8 4.5-12.5 4.5c-1.1 0-9.8 3.4-31.5 12.2-4.1 1.7-10.2 4.1-13.5 5.3-7.5 2.7-18.7 7.6-20 8.7-.5.4-1.7.8-2.7.8-1 0-5.9 2-10.9 4.5s-9.6 4.5-10.2 4.5c-.6 0-5.3 2-10.4 4.5-5 2.5-9.5 4.5-9.9 4.5-.7 0-11.8 5.2-28.9 13.5-4.9 2.4-13.9 6.8-20 9.7-14.3 6.9-53.7 27.6-54.9 28.9-.6.5-1.6.9-2.3.9-.8 0-3.7 1.5-6.6 3.3-2.9 1.9-7.6 4.6-10.6 6.1s-7.4 4-9.8 5.6c-2.4 1.7-4.9 3-5.5 3-.6 0-4.1 2-7.8 4.5s-7.2 4.5-7.7 4.5c-.6 0-2.8 1.3-4.9 2.8-2.2 1.6-6.7 4.4-9.9 6.2-3.3 1.8-7.8 4.6-9.9 6.1-2.2 1.6-4.5 2.9-5.2 2.9-.7 0-1.9.6-2.6 1.3-2 2-10.8 7.7-11.8 7.7-.5 0-2.9 1.6-5.5 3.6-2.6 1.9-5.9 4.1-7.3 4.7-1.5.6-2.9 1.4-3.2 1.7-1.1 1.2-11.1 8-11.8 8-.4 0-2.9 1.8-5.7 4-2.7 2.2-5.5 4-6.2 4-.6 0-1.8.6-2.5 1.3-.7.7-5.4 4.1-10.3 7.4-5 3.3-9.7 6.8-10.4 7.7-.7.9-1.9 1.6-2.7 1.6-.7 0-2.8 1.3-4.6 2.8-3 2.6-11.5 8.8-18.9 13.7-1.7 1.1-5.3 3.9-8.1 6.2-2.9 2.4-5.7 4.3-6.4 4.3-.7 0-1.4.4-1.6.8-.1.5-4.1 3.7-8.8 7.2-4.7 3.6-8.9 7-9.5 7.6-.5.6-2.7 2.1-4.7 3.3-2.1 1.3-3.8 2.6-3.8 2.9 0 .4-1.7 1.8-3.8 3.1-2 1.4-4.1 3-4.7 3.6-.5.6-4.4 3.7-8.5 7s-8.1 6.5-9 7.2c-.8.7-4.2 3.5-7.5 6.3-3.3 2.7-6.9 5.7-8 6.7-1.2 1-3.6 3.1-5.5 4.6-13.6 11.1-38.1 32.5-49.4 43.2-2.4 2.2-8.5 7.8-13.6 12.5-17.1 15.6-43.8 41.9-63 62-7.4 7.8-15.3 16.1-17.5 18.4-4.2 4.4-18.1 19.5-25.1 27.5-13.9 15.5-19.3 21.8-29.2 33.5-2.3 2.8-5.9 7-7.9 9.3-2 2.3-3.9 4.7-4.3 5.3-.3.5-2 2.7-3.8 4.7-6.6 7.9-10.9 13.2-16.7 20.7-3.3 4.3-7.6 9.7-9.6 11.9-2 2.3-4.4 5.7-5.5 7.4-1 1.8-2.1 3.3-2.5 3.3-.3 0-1.9 1.9-3.5 4.2-1.5 2.4-4.7 6.6-7.1 9.5-2.4 2.8-4.3 5.5-4.3 5.9 0 .4-1.7 2.8-3.8 5.3-2.2 2.5-4.6 6-5.5 7.8-.9 1.7-2 3.3-2.5 3.5-.5.1-2.8 3.2-5.2 6.8-2.4 3.6-5.2 7.5-6.4 8.8-1.1 1.2-2.9 3.8-4 5.6-3.9 6.5-14.9 22.1-15.8 22.4-.4.2-.8 1-.8 1.7s-2 4-4.5 7.3-4.5 6.2-4.5 6.4c0 .6-10.2 16.2-12.8 19.8-1 1.4-3.1 4.7-4.7 7.5-1.5 2.7-4.2 7.1-6.1 9.8-1.9 2.6-3.4 5.4-3.4 6.1 0 .8-.5 1.8-1 2.1-1.3.8-8 11.2-8 12.4 0 .4-1.3 2.6-2.8 4.7-1.5 2.1-4.8 7.5-7.1 11.9-2.4 4.4-4.8 8.2-5.2 8.5-.5.3-1.5 2.3-2.4 4.4-.9 2.1-3.3 6.6-5.3 10-2.1 3.3-4.7 7.9-5.9 10.1-1.1 2.2-4.5 8.5-7.5 14-9.7 17.8-18.4 34.6-26.8 51.5-12.9 26-26 53.5-26 54.5 0 .4-2 5-4.5 10.2-2.5 5.1-4.5 9.7-4.5 10.2s-2 5.2-4.5 10.4c-2.5 5.3-4.5 10-4.5 10.6 0 .5-1.5 4.2-3.4 8.3-1.8 4-4.1 9.5-5 12.3-.9 2.7-2.3 6.3-3 8-4.8 10.6-5.6 12.5-5.6 13.8 0 .8-1.2 4.1-2.6 7.3-1.5 3.3-4.5 10.8-6.6 16.9-7.9 22-15 42.1-16.5 47-.8 2.7-3.3 9.9-5.4 16-2.1 6-4.1 12.3-4.5 14-.3 1.6-2.6 8.9-5 16.1-2.4 7.2-4.4 13.9-4.4 14.9s-1.8 7.5-4 14.5c-2.2 6.9-4.4 14.6-4.8 17.1-.5 2.5-2.7 11.2-5 19.4-5.7 21-21.2 88.3-21.2 92 0 1.1-2 12.6-4.4 25.5-5.6 29.1-12.6 73.1-13.6 85.9-.5 5.3-2 19-3.4 30.6-3.9 31.7-6 59.6-8.6 118.5-1.2 26.4-1.2 93.6 0 120 2.6 58.9 4.7 86.8 8.6 118.5 1.4 11.5 2.9 25.3 3.4 30.6 1 12.8 8 56.8 13.6 85.9 2.4 12.9 4.4 24.4 4.4 25.5 0 3.7 15.5 71.2 21.2 92 2.3 8.2 4.5 16.9 5 19.4.4 2.5 2.6 10.2 4.8 17.1 2.2 7 4 13.5 4 14.6 0 1 2 7.7 4.5 14.9 2.5 7.1 4.5 13.8 4.5 14.7 0 .9 2 7.2 4.4 14 2.4 6.8 5.1 14.5 5.9 17.3 1.5 4.9 8.6 25.1 16.5 47 2.1 6 5.1 13.6 6.6 16.9 1.4 3.2 2.6 6.5 2.6 7.3 0 .8.6 2.9 1.4 4.6.8 1.8 2.5 5.9 3.9 9.2 1.3 3.3 4.5 10.9 7.1 17 2.5 6 4.6 11.4 4.6 11.8 0 .4 2 5.1 4.5 10.4 2.5 5.2 4.5 10.1 4.5 10.7 0 .6 1.6 4.3 3.6 8.1 2 3.9 4.3 8.7 5 10.8.7 2.1 3.2 7.7 5.5 12.5 14.9 31.4 16.3 34.4 19.5 40.7 1.4 2.7 3.5 6.8 4.6 9 2.6 5.3 16.3 31.5 22.9 44 2.9 5.5 6.3 11.5 7.6 13.4 1.3 1.9 2.3 4.2 2.3 5.2 0 .9.3 1.9.8 2.1.9.4 8.2 12.3 8.2 13.5 0 .4 2 3.9 4.5 7.6 2.5 3.8 4.5 7.3 4.5 7.8s1.9 3.8 4.3 7.3c4.1 6.2 8 12.8 12.2 20.4 1.1 2.1 3.5 5.7 5.2 8.2 1.7 2.5 4.3 6.8 5.9 9.5 1.5 2.7 3.2 5.5 3.8 6.1.7.6 2.9 4 4.9 7.6 2.1 3.5 4.9 7.7 6.3 9.3 1.3 1.5 2.4 3.3 2.4 3.9 0 .6 1 2.2 2.1 3.6s4.5 6.3 7.6 11c3 4.7 5.8 8.7 6.2 9 .3.3 1.2 1.7 1.9 3.1.8 1.4 2.5 3.9 3.9 5.5s3.2 4.2 4 5.9c.9 1.6 1.9 3.2 2.2 3.5 1.3 1.1 7.1 8.9 7.1 9.6 0 .4 1.7 2.8 3.8 5.3 2.1 2.5 4.5 5.7 5.2 7.1.7 1.4 3.1 4.6 5.2 7.1s3.8 5 3.8 5.6c0 .6.3 1.3.8 1.5.8.4 7 8.1 9.4 11.8.9 1.4 3 4 4.7 5.9 1.7 1.9 3.1 4 3.1 4.7 0 .7.8 1.9 1.8 2.6 1 .7 3.2 3.1 4.8 5.3 1.6 2.2 6.5 8.4 10.9 13.9 4.4 5.4 9 11.3 10.2 13.2 1.2 1.8 2.8 3.6 3.6 4.1.7.4 2.4 2.4 3.7 4.3 1.4 1.9 3.7 4.8 5.2 6.5 2.6 2.9 9.8 11.3 12.8 15.1 2 2.4 15 17.3 17 19.5.8.9 4 4.4 7 7.8 3 3.5 7.1 8 9 10 1.9 2.1 7.3 7.9 12 13 16.3 17.9 50.9 52.9 69.7 70.6 7.5 7.1 16 15.1 18.8 17.7 5 4.8 9.9 9.3 18.6 17.1 2.5 2.3 5.9 5.4 7.5 6.8 3.6 3.3 18.6 16.1 24.9 21.4 2.6 2.2 7.2 6 10.1 8.5 3 2.5 7.9 6.5 10.9 9s6.3 5.2 7.3 6c1 .9 5.1 4.2 9.2 7.5s8 6.4 8.5 7c.6.6 2.7 2.2 4.7 3.6 2.1 1.3 3.8 2.7 3.8 3.1 0 .3 1.7 1.7 3.8 2.9 2 1.3 4.8 3.4 6.2 4.7 1.4 1.4 3.6 3.2 5 4 3.6 2.3 11.4 8.6 11.8 9.4.2.5.9.8 1.5.8s3.1 1.7 5.6 3.8c2.5 2.1 5.7 4.5 7 5.2 1.3.7 4.8 3.1 7.7 5.4 5.5 4.3 11.2 8.4 17.4 12.6 10.9 7.3 22.7 15.5 23.8 16.7.7.7 1.9 1.3 2.5 1.3.7 0 2.3 1 3.7 2.1 1.4 1.1 6.3 4.5 11 7.6 4.7 3 8.7 5.9 9 6.3.3.4 1.5 1 2.8 1.4 1.2.4 3.4 1.8 5 3 1.5 1.3 6.3 4.5 10.7 7.2 4.4 2.6 8.5 5.2 9 5.6.6.5 2.4 1.7 4.2 2.6 4.6 2.5 17 10 22.8 13.9 2.8 1.8 5.4 3.3 5.8 3.3.4 0 3.8 2 7.6 4.5s7.1 4.5 7.5 4.5c.4 0 3.8 1.8 7.6 4.1 7.6 4.5 11.2 6.5 23.2 12.7 4.6 2.4 8.8 4.7 9.3 5.1.6.5 8.5 4.7 17.6 9.4 20.7 10.7 21.1 11 28.4 14.5 3.3 1.7 7.4 3.7 9 4.5 1.7.8 7.5 3.6 13 6.2s14.1 6.7 19 9c15.3 7.3 29 13.5 29.7 13.5.5 0 5.1 2 10.4 4.5 5.2 2.5 10 4.5 10.6 4.5.6 0 4.9 1.8 9.6 4 4.6 2.2 9.6 4.3 11.1 4.7 1.4.3 6.7 2.4 11.6 4.6 5 2.2 10.4 4.3 12 4.7 1.7.5 7.5 2.6 13 4.8 17.3 7 45.4 17.1 62 22.3 5 1.5 13.1 4.1 18 5.8 15.8 5.2 33.9 10.9 37 11.6 1.7.3 8.7 2.4 15.6 4.6 6.9 2.1 13.4 3.9 14.3 3.9 1.7 0 13.3 3.3 23.3 6.6 2.3.7 6.8 1.8 10 2.3 3.2.6 12.6 2.8 20.8 5.1 8.3 2.2 16 4 17.2 4 1.2 0 9.7 1.9 19 4.1 9.2 2.3 19.5 4.5 22.8 4.9 3.3.4 15.5 2.5 27 4.8 11.6 2.3 25.5 4.8 31 5.6 5.5.9 18.8 2.9 29.5 4.5 69.9 10.7 158 17.1 234.5 17.1 77.7 0 164.9-6.4 235.5-17.1 10.7-1.6 24-3.6 29.5-4.5 5.5-.8 19.5-3.3 31-5.6 11.6-2.3 23.7-4.4 27-4.8 3.3-.4 13.6-2.6 22.8-4.9 9.3-2.2 17.8-4.1 19-4.1 1.2 0 9-1.8 17.2-4 8.3-2.3 17.6-4.5 20.8-5.1 3.2-.5 7.7-1.6 10-2.3 10-3.3 21.6-6.6 23.3-6.6.9 0 7.4-1.8 14.3-3.9 6.9-2.2 14-4.3 15.6-4.6 3.1-.7 21.2-6.4 37-11.6 5-1.7 13.1-4.3 18-5.8 16.6-5.2 44.7-15.3 62-22.3 5.5-2.2 11.4-4.3 13-4.8 1.7-.4 7.2-2.6 12.3-4.9 5.1-2.2 9.8-4.1 10.4-4.1.6 0 3.4-1.1 6.2-2.4 10.3-4.8 14.5-6.6 15.5-6.6.6 0 3.9-1.4 7.3-3.1 3.5-1.7 9-4.1 12.3-5.4 3.3-1.3 9.3-3.9 13.2-5.9 4-2 7.6-3.6 8-3.6.5.1 4.9-1.9 9.8-4.4 5-2.5 13.5-6.6 19-9.2 5.5-2.5 11.4-5.3 13-6.1 1.7-.8 5.7-2.8 9-4.5 7.3-3.6 10.1-5 23.5-12 9.4-5 15.5-8.2 34-18 10.8-5.8 14.3-7.7 20.9-11.7 3.7-2.3 7.1-4.1 7.5-4.1.5 0 3.9-2 7.7-4.5 3.8-2.5 7.2-4.5 7.6-4.5.4 0 3-1.5 5.8-3.3 4.7-3.2 16.4-10.4 22.3-13.7 1.5-.9 5.4-3.3 8.7-5.5 3.3-2.2 7.1-4.5 8.5-5.1 1.4-.6 3.5-2 4.8-3.1 1.2-1.1 5.1-3.7 8.7-5.8 3.5-2.1 7.4-4.6 8.4-5.7 1.1-1 2.4-1.8 3-1.8.5 0 3.6-2 6.9-4.5 3.3-2.5 6.3-4.5 6.7-4.5.4 0 3.4-2 6.6-4.5 3.3-2.5 6.2-4.5 6.5-4.5.4 0 3.2-1.9 6.4-4.2 13.5-9.9 18.4-13.3 19.4-13.7.6-.2 3.1-2 5.5-4 2.5-2 5.9-4.5 7.7-5.6 4.7-3 24.1-17.4 28.8-21.6 2.3-2 5.6-4.4 7.4-5.5 1.7-1 3.2-2.1 3.2-2.5 0-.3 1.9-1.9 4.3-3.5 2.3-1.6 4.8-3.5 5.6-4.2.8-.7 4.6-3.9 8.5-7 3.8-3.1 7.8-6.3 8.8-7.2 1-.8 4.3-3.5 7.3-6s7.9-6.5 10.9-9c2.9-2.5 7.5-6.3 10.1-8.5 6.3-5.3 21.3-18.1 24.9-21.4 1.6-1.4 5-4.5 7.5-6.8 8.7-7.8 13.6-12.3 18.6-17.1 2.8-2.6 11.3-10.6 18.8-17.7 18.8-17.7 53.4-52.7 69.7-70.6 4.7-5.1 10.1-10.9 12-13 1.9-2 6-6.5 9-10 3-3.4 6.2-6.9 7-7.8 2-2.2 15-17.1 17-19.5 3-3.8 10.2-12.2 12.8-15.1 1.5-1.7 3.8-4.6 5.2-6.5 1.3-1.9 3-3.9 3.7-4.3.8-.5 2.4-2.3 3.6-4.1 1.2-1.9 5.8-7.8 10.2-13.2 4.4-5.5 9.3-11.7 10.9-13.9 1.6-2.2 3.8-4.6 4.8-5.3 1-.7 1.8-1.9 1.8-2.6 0-.7 1.4-2.8 3.1-4.7 1.7-1.9 3.8-4.5 4.7-5.9 2.4-3.7 8.6-11.4 9.5-11.8.4-.2.7-.9.7-1.5s1.7-3.1 3.8-5.6c2.1-2.5 4.5-5.7 5.2-7.1.7-1.4 3.1-4.6 5.2-7.1s3.8-4.9 3.8-5.3c0-.7 5.8-8.5 7.1-9.6.3-.3 1.3-1.9 2.2-3.5.8-1.7 2.6-4.3 4-5.9 1.4-1.6 3.1-4.1 3.9-5.5.7-1.4 1.6-2.8 1.9-3.1.4-.3 3.2-4.3 6.2-9 3.1-4.7 6.5-9.6 7.6-11 1.1-1.4 2.1-3 2.1-3.6 0-.6 1.1-2.4 2.4-3.9 1.4-1.6 4.2-5.8 6.3-9.3 2-3.6 4.2-7 4.9-7.6.6-.6 2.3-3.4 3.8-6.1 1.6-2.7 4.2-7 5.9-9.5 1.7-2.5 4.1-6.1 5.2-8.2 4.2-7.6 8.1-14.2 12.3-20.4 2.3-3.5 4.2-6.8 4.2-7.3s2-4 4.5-7.8c2.5-3.7 4.5-7.2 4.5-7.6 0-1.2 7.3-13.1 8.3-13.5.4-.2.7-1.2.7-2.1 0-1 1.1-3.4 2.4-5.3 1.3-2 3.5-5.7 4.9-8.4 1.3-2.7 4.5-8.7 6.9-13.4 10.4-19.7 16.7-31.7 18.1-34.5.8-1.7 2.9-5.9 4.8-9.5 1.8-3.6 3.8-7.6 4.4-9 .7-1.4 3.2-6.8 5.7-12 9.6-20 12.7-26.7 14.6-31.5 1.1-2.8 3.4-7.8 5.1-11.2 1.7-3.4 3.1-6.6 3.1-7.2 0-.5 2-5.1 4.5-10.3 2.5-5.1 4.5-9.8 4.5-10.5 0-.6 1.7-4.9 3.9-9.5 2.1-4.7 4.2-9.6 4.6-10.9.9-2.9 6.2-15.7 7.5-18.1.6-1 1-2.5 1-3.3 0-.9 2-6.4 4.5-12.2 2.5-5.8 4.5-11 4.5-11.6 0-.7 2-6.4 4.4-12.7 2.4-6.3 5.4-14.4 6.6-18 1.2-3.6 3.3-9.9 4.7-14 1.4-4.1 4.5-13.1 6.9-20 2.4-6.9 4.4-13.2 4.4-14 0-.8 2-7.4 4.5-14.5 2.4-7.2 4.5-13.9 4.5-15 0-1.1 2-8.3 4.5-16 2.5-7.7 4.5-14.7 4.5-15.6 0-.9 1.8-7.9 4.1-15.5 2.2-7.7 4.4-16.2 4.8-18.9.5-2.8 2.7-12.4 5-21.5 5.4-22 11-48.3 16.5-78 5.9-31.8 13.6-79.6 13.6-84.6 0-2.1 1.1-11.8 2.4-21.4 7.1-52.5 11.6-127.2 11.6-195s-4.5-142.5-11.6-195c-1.3-9.6-2.4-19.3-2.4-21.4 0-5-7.7-52.8-13.6-84.6-5.5-29.7-11.1-56-16.5-78-2.3-9.1-4.5-18.8-5-21.5-.4-2.8-2.6-11.2-4.8-18.9-2.3-7.6-4.1-14.6-4.1-15.5 0-.9-2-7.9-4.5-15.6-2.5-7.7-4.5-14.9-4.5-16 0-1.1-2.1-7.8-4.5-15-2.5-7.1-4.5-13.7-4.5-14.5 0-.8-2-7.1-4.4-14-2.4-6.9-5.5-15.9-6.9-20-1.4-4.1-3.5-10.4-4.7-14-1.2-3.6-4.2-11.7-6.6-18-2.4-6.3-4.4-12-4.4-12.7 0-.6-2-5.8-4.5-11.6s-4.5-11.3-4.5-12.2c0-.8-.4-2.3-1-3.3-1.9-3.4-6.7-14.8-7.4-17.6-.4-1.6-2.5-6.7-4.7-11.3-2.1-4.7-3.9-9-3.9-9.6 0-.7-2-5.4-4.5-10.5-2.5-5.2-4.5-9.8-4.5-10.3s-2-5.2-4.5-10.3c-2.5-5.2-4.5-9.8-4.5-10.2 0-.4-2.1-5.1-4.6-10.3-2.6-5.3-6.7-13.9-9.2-19.1-6.8-14.3-8.1-17.1-10.9-22.5-1.3-2.8-3.2-6.4-4-8-2.8-5.5-14.3-27.5-18.5-35.3-2.3-4.2-5.4-10.2-7-13.2-4.7-9-7.1-13.2-11-19.6-2-3.4-4.4-7.9-5.3-10-.9-2.1-1.9-4.1-2.4-4.4-.4-.3-2.8-4.1-5.2-8.5-2.3-4.4-5.6-9.8-7.1-11.9-1.5-2.1-2.8-4.3-2.8-4.7 0-1.2-6.7-11.6-8-12.4-.5-.3-1-1.3-1-2.1 0-.7-1.5-3.5-3.4-6.1-1.9-2.7-4.6-7.1-6.1-9.8-1.6-2.8-3.7-6.1-4.7-7.5-2.6-3.6-12.8-19.2-12.8-19.8 0-.2-2-3.1-4.5-6.4-2.5-3.3-4.5-6.6-4.5-7.3 0-.7-.4-1.5-.8-1.7-.9-.3-11.9-15.9-15.8-22.4-1.1-1.8-2.9-4.4-4-5.6-1.2-1.3-4-5.2-6.4-8.8-2.4-3.6-4.7-6.7-5.2-6.8-.5-.2-1.6-1.8-2.5-3.5-.9-1.8-3.3-5.3-5.5-7.8-2.1-2.5-3.8-4.9-3.8-5.3 0-.4-1.9-3.1-4.3-5.9-2.4-2.9-5.6-7.1-7.1-9.5-1.6-2.3-3.2-4.2-3.5-4.2-.4 0-1.5-1.5-2.5-3.3-1.1-1.7-3.5-5.1-5.5-7.4-2-2.2-6.3-7.6-9.6-11.9-5.8-7.5-10.1-12.8-16.7-20.7-1.8-2-3.5-4.2-3.8-4.7-.4-.6-2.3-3-4.3-5.3s-5.6-6.5-7.9-9.3c-9.9-11.7-15.3-18-29.2-33.5-7-8-20.9-23.1-25.1-27.5-2.2-2.3-10.1-10.6-17.5-18.4-19.2-20.1-45.9-46.4-63-62-5.1-4.7-11.2-10.3-13.6-12.5-11.3-10.7-35.8-32.1-49.4-43.2-1.9-1.5-4.3-3.6-5.5-4.6-1.1-1-4.7-4-8-6.7-3.3-2.8-6.7-5.6-7.5-6.3-.9-.7-4.9-3.9-9-7.1-4.1-3.3-8-6.4-8.5-7-.6-.6-2.6-2.2-4.5-3.5-1.9-1.4-4.4-3.3-5.5-4.3-1.1-1-3.4-2.8-5.2-4-4-2.9-22.3-16.7-28.3-21.4-4.3-3.3-6.2-4.7-15.5-11.1-2.2-1.5-6.6-4.7-9.7-7-3.1-2.4-5.9-4.3-6.3-4.3-.4 0-3.2-2-6.4-4.5-3.1-2.5-6-4.5-6.4-4.5-.4 0-3.3-2-6.6-4.5-3.2-2.5-6.3-4.5-6.8-4.5-.4 0-3-1.8-5.8-4-2.7-2.2-5.5-4-6.1-4-.6 0-2.4-1.1-3.9-2.4-1.6-1.4-5.7-4.1-9.2-6.2-3.4-2-7.5-4.7-9-6-1.6-1.3-3.7-2.7-4.7-3-1.1-.4-4.8-2.6-8.2-4.9-3.4-2.4-7.1-4.6-8.2-4.9-1.1-.4-3.2-1.7-4.7-3s-4.6-3.3-7-4.5c-2.3-1.2-6.9-3.9-10.1-6.1-3.3-2.2-6.2-4-6.6-4-1 0-11-6.1-12.6-7.7-.7-.7-2-1.3-2.8-1.3-.9 0-3.4-1.3-5.7-2.9-2.3-1.6-7.3-4.5-11.2-6.6-3.8-2.1-9.7-5.2-13-7-22.6-12.2-51.8-27.5-52.5-27.5-.4 0-4.4-2-8.8-4.5s-8.5-4.5-9.2-4.5c-.7 0-5.1-2-9.9-4.4-11.4-5.9-24.4-12-30.6-14.5-2.7-1.1-7.7-3.3-10.9-5-3.3-1.7-6.6-3.1-7.3-3.1-.7 0-5.4-2-10.3-4.5s-9.6-4.5-10.3-4.5c-.8 0-2.7-.6-4.3-1.4-6.6-3.2-13.2-6-18.9-8.1-3.3-1.2-9.4-3.6-13.5-5.3-21.7-8.8-30.4-12.2-31.5-12.2-.7 0-6.3-2-12.5-4.5s-11.8-4.5-12.5-4.5c-.7 0-5.5-1.6-10.7-3.6-5.1-2-12.2-4.4-15.8-5.4-3.6-1-11.2-3.4-17-5.4-18.3-6.1-35.9-11.6-37.4-11.6-.8 0-7.7-2-15.4-4.5-7.6-2.5-14.5-4.5-15.3-4.5-.8 0-8.6-1.9-17.4-4.3-21.2-5.9-53.5-13.8-55.9-13.7-1 0-8.2-1.5-16-3.4-7.7-1.9-16.8-3.9-20.1-4.5-3.3-.6-16.4-3.1-29.2-5.6-12.7-2.5-24.4-4.5-26-4.5-1.5 0-13.6-1.8-26.8-4-13.2-2.2-29.2-4.5-35.5-5-6.3-.5-18.2-1.9-26.5-2.9-32.5-4.3-64-6.5-127-9.1-24.7-1-81-1-107.5 0zm-181 1240.9c-.1 21.2-.1 39.1-.1 39.6.2 2.1-6.5 2.1 268.8 1.7l193.2-.2 5-2.7 5.1-2.6v-74.2l475.3-.3 475.4-.4V1543h-80l.6 158.5.5 158.5h-80l.7 79 .8 79h-79l-.7 3.2c-.4 1.8-.6 19.7-.6 39.8l.1 36.5h-157.6l-.1 4c-.1 2.2-.2 20.1-.3 39.8l-.1 35.7-119.2-.2-119.3-.3-.3-39.8-.2-39.8-31.8.1c-17.4.1-70.5.1-117.9.1l-86.3-.1-.2-39.5-.3-39.6-39.2.1H1987v-79H1906.7l.8-79 .7-79-6.4-.1c-3.4-.1-21.4-.2-39.8-.2l-33.5-.2V1701c0-43.7-.1-97.2-.2-118.8l-.3-39.2h-156l-.2 39.2c-.2 21.6-.3 75.1-.3 118.8v79.5l-39.8.3-39.9.2.7 79 .7 79h-80.4l.2 7.2c.1 4 .2 21.8.1 39.5l-.1 32.3h-78v79h-40.2c-37.1-.1-129.4.8-155.3 1.5-6 .1-17.9.3-26.2.4l-15.3.1v78H959l-.2-35.3c-.1-19.3-.2-37.2-.2-39.7l-.1-4.5-39.5-.2c-21.7-.2-57.2-.3-78.7-.3H801v-37.3c0-20.4-.3-38.2-.6-39.5l-.6-2.2h-79.1l.8-79 .7-79h-80.4l.7-80.6c.4-44.3.4-115.6 0-158.5l-.7-77.9h-78.5v-240.1l475.4.2 475.4.1-.1 38.7z"/><path d="M1080.3 1384.7l-198.3.3-.2 39-.3 39.1-39.5.2-39.5.2-.3 39.7-.2 39.8-34.3.1c-18.8.1-36.4.2-39.2.3l-5 .1-.3 77.7-.2 77.8 39.2.2 39.3.3v238l39.5.5 39.5.5.2 39 .2 39 236.5.3 236.6.2v-79h79v-80h79.8l-.1-197.6-.2-197.6-79.2.7-79.3.7v-32.1c0-20.7-.4-32.1-1-32.1-.5 0-1-.9-1-2s.4-2 .9-2 .8-2.6.7-5.8l-.1-5.7H1316c-20.6 0-126.7.1-235.7.2zM2146.5 1385c-.4.6-.6 18.6-.5 40.1v39.1l-79.5-.7-79.5-.7.3 197.9.2 197.8 39.3.3 39.2.2v79h79l.2 39.7.3 39.8 236.5-.4c130.1-.2 236.9-.5 237.3-.8.5-.3.8-4.6.7-9.6-.1-5.1-.1-22.6-.1-38.9l.1-29.8 39.3-.2 39.2-.3V1858c0-43.7.1-96.9.3-118.2l.2-38.7 38.9-.3c21.4-.2 39.3-.7 39.8-1.1.4-.5.8-35.7.8-78.2 0-62.2-.3-77.7-1.3-78.7s-9.5-1.3-39.6-1.3h-38.4l-.6-6.9c-.4-3.9-.6-21.4-.6-39l.1-32.1-39.5-.3-39.6-.2-.1-26.8c0-14.7 0-32.1.1-38.8l.1-12.1-117.8-.6c-180.4-1.1-354.1-.9-354.8.3z"/></svg>